<svg width="163" height="32" viewBox="0 0 163 32" fill="none" xmlns="http://www.w3.org/2000/svg">
<path d="M0 8.42105C0 3.77023 3.77023 0 8.42105 0H23.5789C28.2298 0 32 3.77023 32 8.42105V23.5789C32 28.2298 28.2298 32 23.5789 32H8.42105C3.77023 32 0 28.2298 0 23.5789V8.42105Z" fill="#00940F"/>
<rect x="5" y="10.6515" width="7.30283" height="7.30283" transform="rotate(-30 5 10.6515)" fill="#FFB82B"/>
<rect x="8.08374" y="18.1975" width="7.46511" height="7.46511" fill="#FFB82B"/>
<rect x="18.5349" y="8.49284" width="7.46511" height="7.46511" fill="#FFB82B"/>
<rect x="18.5349" y="18.1975" width="7.46511" height="7.46511" fill="#FFB82B"/>
<path d="M45.2691 24.3C44.2824 24.3 43.3824 24.1267 42.5691 23.78C41.7557 23.4333 41.0557 22.9367 40.4691 22.29C39.8824 21.6367 39.4291 20.85 39.1091 19.93C38.7957 19.0033 38.6391 17.96 38.6391 16.8C38.6391 15.2667 38.9124 13.94 39.4591 12.82C40.0057 11.7 40.7757 10.8367 41.7691 10.23C42.7624 9.61667 43.9291 9.31 45.2691 9.31C46.8824 9.31 48.1824 9.68667 49.1691 10.44C50.1557 11.1867 50.8357 12.21 51.2091 13.51L49.4091 13.88C49.1091 13.0067 48.6157 12.31 47.9291 11.79C47.2424 11.27 46.3857 11.01 45.3591 11.01C44.2857 11.0033 43.3924 11.2433 42.6791 11.73C41.9724 12.21 41.4391 12.8867 41.0791 13.76C40.7191 14.6333 40.5357 15.6467 40.5291 16.8C40.5224 17.9467 40.6991 18.9533 41.0591 19.82C41.4191 20.6867 41.9557 21.3667 42.6691 21.86C43.3891 22.3467 44.2857 22.5933 45.3591 22.6C46.2857 22.6067 47.0657 22.43 47.6991 22.07C48.3324 21.71 48.8224 21.19 49.1691 20.51C49.5157 19.83 49.7257 19.0133 49.7991 18.06H46.7391V16.59H51.6791C51.6991 16.7233 51.7091 16.8833 51.7091 17.07C51.7157 17.25 51.7191 17.3733 51.7191 17.44C51.7191 18.7533 51.4724 19.93 50.9791 20.97C50.4924 22.0033 49.7691 22.8167 48.8091 23.41C47.8557 24.0033 46.6757 24.3 45.2691 24.3ZM53.7164 24V13.2H55.3064V15.81L55.0464 15.47C55.1731 15.1367 55.3364 14.83 55.5364 14.55C55.7431 14.27 55.9731 14.04 56.2264 13.86C56.5064 13.6333 56.8231 13.46 57.1764 13.34C57.5297 13.22 57.8897 13.15 58.2564 13.13C58.6231 13.1033 58.9664 13.1267 59.2864 13.2V14.87C58.9131 14.77 58.5031 14.7433 58.0564 14.79C57.6097 14.8367 57.1964 15 56.8164 15.28C56.4697 15.5267 56.1997 15.8267 56.0064 16.18C55.8197 16.5333 55.6897 16.9167 55.6164 17.33C55.5431 17.7367 55.5064 18.1533 55.5064 18.58V24H53.7164ZM65.662 24.3C64.602 24.3 63.6754 24.0667 62.882 23.6C62.0954 23.1267 61.482 22.47 61.042 21.63C60.602 20.7833 60.382 19.7967 60.382 18.67C60.382 17.49 60.5987 16.47 61.032 15.61C61.4654 14.7433 62.0687 14.0767 62.842 13.61C63.622 13.1367 64.5354 12.9 65.582 12.9C66.6687 12.9 67.592 13.15 68.352 13.65C69.1187 14.15 69.692 14.8633 70.072 15.79C70.4587 16.7167 70.6254 17.82 70.572 19.1H68.772V18.46C68.752 17.1333 68.482 16.1433 67.962 15.49C67.442 14.83 66.6687 14.5 65.642 14.5C64.542 14.5 63.7054 14.8533 63.132 15.56C62.5587 16.2667 62.272 17.28 62.272 18.6C62.272 19.8733 62.5587 20.86 63.132 21.56C63.7054 22.26 64.522 22.61 65.582 22.61C66.2954 22.61 66.9154 22.4467 67.442 22.12C67.9687 21.7933 68.382 21.3233 68.682 20.71L70.392 21.3C69.972 22.2533 69.3387 22.9933 68.492 23.52C67.652 24.04 66.7087 24.3 65.662 24.3ZM61.672 19.1V17.67H69.652V19.1H61.672ZM77.4784 24.3C76.4184 24.3 75.4918 24.0667 74.6984 23.6C73.9118 23.1267 73.2984 22.47 72.8584 21.63C72.4184 20.7833 72.1984 19.7967 72.1984 18.67C72.1984 17.49 72.4151 16.47 72.8484 15.61C73.2818 14.7433 73.8851 14.0767 74.6584 13.61C75.4384 13.1367 76.3518 12.9 77.3984 12.9C78.4851 12.9 79.4084 13.15 80.1684 13.65C80.9351 14.15 81.5084 14.8633 81.8884 15.79C82.2751 16.7167 82.4418 17.82 82.3884 19.1H80.5884V18.46C80.5684 17.1333 80.2984 16.1433 79.7784 15.49C79.2584 14.83 78.4851 14.5 77.4584 14.5C76.3584 14.5 75.5218 14.8533 74.9484 15.56C74.3751 16.2667 74.0884 17.28 74.0884 18.6C74.0884 19.8733 74.3751 20.86 74.9484 21.56C75.5218 22.26 76.3384 22.61 77.3984 22.61C78.1118 22.61 78.7318 22.4467 79.2584 22.12C79.7851 21.7933 80.1984 21.3233 80.4984 20.71L82.2084 21.3C81.7884 22.2533 81.1551 22.9933 80.3084 23.52C79.4684 24.04 78.5251 24.3 77.4784 24.3ZM73.4884 19.1V17.67H81.4684V19.1H73.4884ZM92.0119 24V18.59C92.0119 18.0767 91.9652 17.5833 91.8719 17.11C91.7852 16.6367 91.6285 16.2133 91.4019 15.84C91.1819 15.46 90.8819 15.16 90.5019 14.94C90.1285 14.72 89.6552 14.61 89.0819 14.61C88.6352 14.61 88.2285 14.6867 87.8619 14.84C87.5019 14.9867 87.1919 15.2133 86.9319 15.52C86.6719 15.8267 86.4685 16.2133 86.3219 16.68C86.1819 17.14 86.1119 17.6833 86.1119 18.31L84.9419 17.95C84.9419 16.9033 85.1285 16.0067 85.5019 15.26C85.8819 14.5067 86.4119 13.93 87.0919 13.53C87.7785 13.1233 88.5852 12.92 89.5119 12.92C90.2119 12.92 90.8085 13.03 91.3019 13.25C91.7952 13.47 92.2052 13.7633 92.5319 14.13C92.8585 14.49 93.1152 14.8967 93.3019 15.35C93.4885 15.7967 93.6185 16.2533 93.6919 16.72C93.7719 17.18 93.8119 17.6167 93.8119 18.03V24H92.0119ZM84.3119 24V13.2H85.9119V16.09H86.1119V24H84.3119ZM100.416 24V9.6H106.026C106.886 9.6 107.619 9.77667 108.226 10.13C108.839 10.4833 109.306 10.95 109.626 11.53C109.952 12.1033 110.116 12.7233 110.116 13.39C110.116 14.17 109.916 14.8533 109.516 15.44C109.116 16.0267 108.576 16.43 107.896 16.65L107.876 16.16C108.802 16.4067 109.522 16.86 110.036 17.52C110.549 18.18 110.806 18.9667 110.806 19.88C110.806 20.72 110.632 21.4467 110.286 22.06C109.946 22.6733 109.452 23.15 108.806 23.49C108.166 23.83 107.406 24 106.526 24H100.416ZM102.216 22.3H106.186C106.719 22.3 107.196 22.2033 107.616 22.01C108.036 21.81 108.366 21.53 108.606 21.17C108.852 20.81 108.976 20.3767 108.976 19.87C108.976 19.3833 108.866 18.9467 108.646 18.56C108.432 18.1733 108.129 17.8667 107.736 17.64C107.349 17.4067 106.899 17.29 106.386 17.29H102.216V22.3ZM102.216 15.61H106.006C106.432 15.61 106.816 15.52 107.156 15.34C107.502 15.1533 107.776 14.8933 107.976 14.56C108.182 14.2267 108.286 13.8367 108.286 13.39C108.286 12.77 108.076 12.2633 107.656 11.87C107.236 11.4767 106.686 11.28 106.006 11.28H102.216V15.61ZM115.868 24.3C115.062 24.3 114.385 24.1533 113.838 23.86C113.298 23.56 112.888 23.1667 112.608 22.68C112.335 22.1933 112.198 21.66 112.198 21.08C112.198 20.5133 112.305 20.0233 112.518 19.61C112.738 19.19 113.045 18.8433 113.438 18.57C113.832 18.29 114.302 18.07 114.848 17.91C115.362 17.77 115.935 17.65 116.568 17.55C117.208 17.4433 117.855 17.3467 118.508 17.26C119.162 17.1733 119.772 17.09 120.338 17.01L119.698 17.38C119.718 16.42 119.525 15.71 119.118 15.25C118.718 14.79 118.025 14.56 117.038 14.56C116.385 14.56 115.812 14.71 115.318 15.01C114.832 15.3033 114.488 15.7833 114.288 16.45L112.598 15.94C112.858 14.9933 113.362 14.25 114.108 13.71C114.855 13.17 115.838 12.9 117.058 12.9C118.038 12.9 118.878 13.0767 119.578 13.43C120.285 13.7767 120.792 14.3033 121.098 15.01C121.252 15.3433 121.348 15.7067 121.388 16.1C121.428 16.4867 121.448 16.8933 121.448 17.32V24H119.868V21.41L120.238 21.65C119.832 22.5233 119.262 23.1833 118.528 23.63C117.802 24.0767 116.915 24.3 115.868 24.3ZM116.138 22.81C116.778 22.81 117.332 22.6967 117.798 22.47C118.272 22.2367 118.652 21.9333 118.938 21.56C119.225 21.18 119.412 20.7667 119.498 20.32C119.598 19.9867 119.652 19.6167 119.658 19.21C119.672 18.7967 119.678 18.48 119.678 18.26L120.298 18.53C119.718 18.61 119.148 18.6867 118.588 18.76C118.028 18.8333 117.498 18.9133 116.998 19C116.498 19.08 116.048 19.1767 115.648 19.29C115.355 19.3833 115.078 19.5033 114.818 19.65C114.565 19.7967 114.358 19.9867 114.198 20.22C114.045 20.4467 113.968 20.73 113.968 21.07C113.968 21.3633 114.042 21.6433 114.188 21.91C114.342 22.1767 114.575 22.3933 114.888 22.56C115.208 22.7267 115.625 22.81 116.138 22.81ZM131.738 24V18.59C131.738 18.0767 131.692 17.5833 131.598 17.11C131.512 16.6367 131.355 16.2133 131.128 15.84C130.908 15.46 130.608 15.16 130.228 14.94C129.855 14.72 129.382 14.61 128.808 14.61C128.362 14.61 127.955 14.6867 127.588 14.84C127.228 14.9867 126.918 15.2133 126.658 15.52C126.398 15.8267 126.195 16.2133 126.048 16.68C125.908 17.14 125.838 17.6833 125.838 18.31L124.668 17.95C124.668 16.9033 124.855 16.0067 125.228 15.26C125.608 14.5067 126.138 13.93 126.818 13.53C127.505 13.1233 128.312 12.92 129.238 12.92C129.938 12.92 130.535 13.03 131.028 13.25C131.522 13.47 131.932 13.7633 132.258 14.13C132.585 14.49 132.842 14.8967 133.028 15.35C133.215 15.7967 133.345 16.2533 133.418 16.72C133.498 17.18 133.538 17.6167 133.538 18.03V24H131.738ZM124.038 24V13.2H125.638V16.09H125.838V24H124.038ZM140.508 29.1C139.942 29.1 139.388 29.0133 138.848 28.84C138.308 28.6667 137.812 28.4033 137.358 28.05C136.912 27.7033 136.538 27.2633 136.238 26.73L137.868 25.87C138.135 26.3967 138.512 26.78 138.998 27.02C139.492 27.26 139.998 27.38 140.518 27.38C141.205 27.38 141.775 27.2533 142.228 27C142.682 26.7533 143.015 26.3833 143.228 25.89C143.448 25.3967 143.555 24.7833 143.548 24.05V21.1H143.758V13.2H145.338V24.07C145.338 24.3633 145.328 24.6467 145.308 24.92C145.295 25.1933 145.262 25.4633 145.208 25.73C145.068 26.4967 144.792 27.1267 144.378 27.62C143.965 28.12 143.432 28.49 142.778 28.73C142.125 28.9767 141.368 29.1 140.508 29.1ZM140.378 24.3C139.372 24.3 138.508 24.05 137.788 23.55C137.068 23.0433 136.512 22.36 136.118 21.5C135.732 20.64 135.538 19.67 135.538 18.59C135.538 17.51 135.732 16.54 136.118 15.68C136.512 14.82 137.068 14.1433 137.788 13.65C138.508 13.15 139.368 12.9 140.368 12.9C141.388 12.9 142.245 13.1467 142.938 13.64C143.632 14.1333 144.155 14.81 144.508 15.67C144.868 16.53 145.048 17.5033 145.048 18.59C145.048 19.6633 144.868 20.6333 144.508 21.5C144.155 22.36 143.632 23.0433 142.938 23.55C142.245 24.05 141.392 24.3 140.378 24.3ZM140.598 22.67C141.325 22.67 141.922 22.4967 142.388 22.15C142.855 21.7967 143.198 21.3133 143.418 20.7C143.645 20.08 143.758 19.3767 143.758 18.59C143.758 17.79 143.645 17.0867 143.418 16.48C143.198 15.8667 142.858 15.39 142.398 15.05C141.938 14.7033 141.355 14.53 140.648 14.53C139.915 14.53 139.308 14.71 138.828 15.07C138.355 15.43 138.002 15.9167 137.768 16.53C137.542 17.1433 137.428 17.83 137.428 18.59C137.428 19.3567 137.545 20.05 137.778 20.67C138.012 21.2833 138.362 21.77 138.828 22.13C139.302 22.49 139.892 22.67 140.598 22.67ZM148.33 24V9.3H150.11V24H148.33ZM156.181 24.3C155.374 24.3 154.698 24.1533 154.151 23.86C153.611 23.56 153.201 23.1667 152.921 22.68C152.648 22.1933 152.511 21.66 152.511 21.08C152.511 20.5133 152.618 20.0233 152.831 19.61C153.051 19.19 153.358 18.8433 153.751 18.57C154.144 18.29 154.614 18.07 155.161 17.91C155.674 17.77 156.248 17.65 156.881 17.55C157.521 17.4433 158.168 17.3467 158.821 17.26C159.474 17.1733 160.084 17.09 160.651 17.01L160.011 17.38C160.031 16.42 159.838 15.71 159.431 15.25C159.031 14.79 158.338 14.56 157.351 14.56C156.698 14.56 156.124 14.71 155.631 15.01C155.144 15.3033 154.801 15.7833 154.601 16.45L152.911 15.94C153.171 14.9933 153.674 14.25 154.421 13.71C155.168 13.17 156.151 12.9 157.371 12.9C158.351 12.9 159.191 13.0767 159.891 13.43C160.598 13.7767 161.104 14.3033 161.411 15.01C161.564 15.3433 161.661 15.7067 161.701 16.1C161.741 16.4867 161.761 16.8933 161.761 17.32V24H160.181V21.41L160.551 21.65C160.144 22.5233 159.574 23.1833 158.841 23.63C158.114 24.0767 157.228 24.3 156.181 24.3ZM156.451 22.81C157.091 22.81 157.644 22.6967 158.111 22.47C158.584 22.2367 158.964 21.9333 159.251 21.56C159.538 21.18 159.724 20.7667 159.811 20.32C159.911 19.9867 159.964 19.6167 159.971 19.21C159.984 18.7967 159.991 18.48 159.991 18.26L160.611 18.53C160.031 18.61 159.461 18.6867 158.901 18.76C158.341 18.8333 157.811 18.9133 157.311 19C156.811 19.08 156.361 19.1767 155.961 19.29C155.668 19.3833 155.391 19.5033 155.131 19.65C154.878 19.7967 154.671 19.9867 154.511 20.22C154.358 20.4467 154.281 20.73 154.281 21.07C154.281 21.3633 154.354 21.6433 154.501 21.91C154.654 22.1767 154.888 22.3933 155.201 22.56C155.521 22.7267 155.938 22.81 156.451 22.81Z" fill="#282828"/>
</svg>
